<svg xmlns="http://www.w3.org/2000/svg" width="48" height="48"><path d="M24 0C10.751 0 0 10.749 0 23.998 0 37.248 10.751 48 24 48s24-10.753 24-24.002C48 10.749 37.249 0 24 0zm0 1.008c12.704 0 22.992 10.285 22.992 22.99 0 12.705-10.288 22.994-22.992 22.994S1.008 36.702 1.008 23.998c0-12.705 10.288-22.99 22.992-22.99zM24 6c-2.203 0-4 1.797-4 4 0 2.034 1.532 3.69 3.5 3.938V15.5c0 .262.238.5.5.5h2c.373 0 .593.104.75.281.157.177.25.425.25.688 0 .262-.093.541-.25.718-.157.178-.377.282-.75.282h-4c-.623 0-1.16.273-1.5.656-.34.383-.5.859-.5 1.344 0 .484.16.991.5 1.375.34.383.877.625 1.5.625h1.5v.968h-7.625a.466.466 0 00-.156.032c-.075 0-.144-.03-.219-.032h-.031C11.51 22.938 8 26.485 8 30.47 8 34.453 11.51 38 15.469 38c2.97 0 5.75-1.932 6.875-4.688h3.312c1.126 2.756 3.906 4.684 6.875 4.688C36.49 38 40 34.453 40 30.469c0-3.985-3.51-7.532-7.469-7.532-.07.001-.149.029-.218.032h-.063a.49.49 0 00-.125-.032H24.5V21.47a.52.52 0 00-.5-.5h-2c-.373 0-.593-.136-.75-.313a1.04 1.04 0 01-.25-.687c0-.263.093-.51.25-.688.157-.177.377-.312.75-.312h4c.623 0 1.16-.242 1.5-.625.34-.384.5-.89.5-1.375s-.16-.96-.5-1.344c-.34-.383-.877-.625-1.5-.625h-1.5v-1.063C26.468 13.69 28 12.034 28 10c0-2.203-1.797-4-4-4zm0 1c1.663 0 3 1.337 3 3a2.998 2.998 0 01-2.875 3h-.25A2.998 2.998 0 0121 10c0-1.663 1.337-3 3-3zm1.156 1.469L23.5 10.125l-.656-.656-.688.687 1 1 .344.375.344-.375 2-2-.688-.687zM15.47 23.938c.12 0 .224.02.344.03a.466.466 0 00.156-.03h16.093a.49.49 0 00.126.03c.12-.01.223-.03.343-.03 3.346 0 6.469 3.148 6.469 6.53C39 33.853 35.877 37 32.531 37c-2.63 0-5.215-1.838-6.093-4.344a.514.514 0 00-.47-.343h-3.937a.51.51 0 00-.468.343c-.879 2.506-3.465 4.34-6.094 4.344C12.123 37 9 33.852 9 30.469c0-3.383 3.123-6.532 6.469-6.532zm17.093 1.656c-.96 0-1.75.789-1.75 1.75 0 .96.79 1.75 1.75 1.75s1.75-.79 1.75-1.75c0-.961-.79-1.75-1.75-1.75zm0 1c.416 0 .75.325.75.75 0 .424-.334.75-.75.75a.743.743 0 01-.75-.75c0-.425.335-.75.75-.75zm-17.468.218a.345.345 0 00-.125.032.515.515 0 00-.375.5v2.625h-2.657a.52.52 0 00-.468.531.52.52 0 00.531.469h2.594v2.625a.52.52 0 00.5.508.52.52 0 00.5-.508v-2.625h2.594a.523.523 0 00.507-.5.52.52 0 00-.508-.5h-2.593v-2.625a.52.52 0 00-.5-.532zm6.687 1.657a.532.532 0 00-.39.61.532.532 0 00.609.39h1a.523.523 0 00.508-.5.52.52 0 00-.508-.5h-1.219zm3 0a.532.532 0 00-.39.61.532.532 0 00.609.39h1a.523.523 0 00.508-.5.52.52 0 00-.508-.5h-1.219zm4.688.25c-.96 0-1.75.789-1.75 1.75 0 .96.79 1.75 1.75 1.75s1.75-.79 1.75-1.75c0-.961-.79-1.75-1.75-1.75zm6.187 0c-.96 0-1.75.789-1.75 1.75 0 .96.79 1.75 1.75 1.75s1.75-.79 1.75-1.75c0-.961-.79-1.75-1.75-1.75zm-6.187 1c.415 0 .75.325.75.75 0 .424-.335.75-.75.75a.743.743 0 01-.75-.75c0-.425.334-.75.75-.75zm6.187 0c.416 0 .75.325.75.75 0 .424-.334.75-.75.75a.743.743 0 01-.75-.75c0-.425.335-.75.75-.75zm-3.093 2.125c-.96 0-1.75.789-1.75 1.75 0 .96.79 1.75 1.75 1.75s1.75-.79 1.75-1.75c0-.961-.79-1.75-1.75-1.75zm0 1c.415 0 .75.325.75.75 0 .424-.335.75-.75.75a.743.743 0 01-.75-.75c0-.425.334-.75.75-.75z" color="#000" font-family="Sans" font-weight="400" overflow="visible" style="line-height:normal;-inkscape-font-specification:Sans;text-indent:0;text-align:start;text-decoration-line:none;text-transform:none;block-progression:tb;marker:none"/></svg>